<?xml version="1.0" standalone="no"?>
<!DOCTYPE svg PUBLIC "-//W3C//DTD SVG 20010904//EN"
 "http://www.w3.org/TR/2001/REC-SVG-20010904/DTD/svg10.dtd">
<svg version="1.0" xmlns="http://www.w3.org/2000/svg"
 width="990.000000pt" height="990.000000pt" viewBox="0 0 990.000000 990.000000"
 preserveAspectRatio="xMidYMid meet">
<metadata>
Created by potrace 1.14, written by Peter Selinger 2001-2017
</metadata>
<g transform="translate(0.000000,990.000000) scale(0.100000,-0.100000)"
fill="#000000" stroke="none">
<path d="M4688 9895 c-2 -2 -50 -6 -108 -9 -58 -4 -112 -9 -120 -11 -8 -2 -42
-6 -75 -10 -33 -4 -94 -13 -135 -21 -41 -7 -93 -16 -115 -19 -130 -20 -594
-154 -717 -208 -18 -8 -51 -22 -73 -31 -324 -137 -629 -313 -894 -516 -64 -49
-128 -99 -143 -112 -15 -13 -54 -45 -87 -73 -159 -132 -459 -459 -593 -645
-26 -36 -52 -70 -57 -76 -18 -22 -139 -212 -193 -304 -226 -386 -421 -911
-484 -1309 -3 -18 -8 -43 -10 -55 -2 -11 -9 -55 -15 -96 -5 -41 -12 -91 -15
-110 -15 -108 -18 -180 -19 -420 0 -232 7 -411 19 -475 2 -11 7 -46 11 -79 3
-32 8 -68 10 -80 2 -11 6 -37 9 -56 3 -19 8 -44 10 -55 2 -11 11 -56 20 -100
45 -217 158 -588 225 -740 5 -11 32 -76 61 -144 187 -447 466 -922 829 -1411
111 -150 375 -479 401 -500 3 -3 15 -17 25 -31 37 -48 221 -251 360 -398 445
-469 1023 -992 1510 -1366 50 -38 92 -72 95 -75 3 -3 40 -31 83 -63 42 -31
110 -81 150 -111 39 -29 114 -83 166 -120 l94 -66 36 22 c108 66 539 391 800
603 70 56 343 287 367 310 10 10 102 90 154 135 25 22 172 157 264 243 161
151 508 504 638 648 113 126 170 190 199 224 19 22 36 42 39 45 3 3 37 43 75
90 38 47 72 87 75 90 16 14 200 253 291 376 324 440 608 926 783 1339 26 61
51 119 56 130 45 101 174 485 186 555 3 14 11 48 19 75 8 28 16 61 18 75 3 14
12 60 21 102 9 42 19 93 22 114 3 20 7 46 10 57 6 34 23 167 31 242 14 141 6
648 -12 765 -2 14 -7 50 -10 80 -3 30 -7 66 -10 80 -3 14 -7 41 -10 60 -16
102 -39 216 -62 305 -14 55 -29 118 -34 140 -28 119 -144 440 -211 583 -33 72
-114 238 -128 262 -9 16 -114 194 -140 239 -76 129 -264 381 -393 526 -143
161 -371 376 -562 528 -45 36 -227 167 -255 184 -19 11 -84 51 -145 88 -210
130 -512 273 -748 354 -125 43 -380 117 -436 126 -19 3 -38 8 -42 11 -5 3 -21
7 -36 9 -16 2 -80 13 -143 24 -134 23 -164 28 -245 36 -33 3 -78 8 -100 11
-43 6 -582 14 -587 9z m537 -919 c17 -2 55 -7 85 -10 166 -16 561 -108 632
-147 10 -5 23 -9 29 -9 12 0 121 -41 186 -71 24 -10 45 -19 49 -19 15 0 280
-139 363 -191 51 -33 97 -59 101 -59 5 0 10 -4 12 -8 2 -5 26 -24 53 -43 484
-333 891 -836 1117 -1384 106 -257 194 -579 213 -785 4 -36 8 -71 10 -78 24
-74 24 -732 0 -772 -2 -3 -6 -27 -9 -55 -3 -27 -14 -95 -26 -150 -12 -55 -23
-111 -26 -125 -10 -47 -53 -195 -82 -280 -227 -665 -667 -1235 -1254 -1626
-188 -125 -413 -242 -608 -316 -174 -67 -436 -142 -560 -162 -278 -45 -348
-50 -600 -50 -172 0 -316 7 -376 18 -11 2 -47 7 -79 11 -60 8 -78 10 -125 20
-14 2 -36 7 -50 9 -57 10 -170 38 -274 70 -840 256 -1542 845 -1925 1616 -93
189 -98 201 -172 410 -35 100 -104 363 -114 434 -3 27 -8 52 -10 55 -1 3 -6
29 -9 56 -4 28 -9 66 -11 85 -26 185 -26 734 0 812 2 7 6 32 9 56 14 104 21
136 57 282 236 953 883 1730 1784 2140 159 73 388 152 535 185 105 24 205 45
241 50 24 3 57 8 72 11 40 8 69 12 167 19 47 4 87 9 89 11 6 5 470 -3 506 -10z"/>
<path d="M3681 7000 c-9 -6 -6 -950 3 -1005 19 -112 30 -157 57 -239 58 -173
142 -311 279 -459 74 -80 216 -187 249 -187 14 -1 313 -1 663 -1 l637 -1 73
54 c85 63 190 167 244 243 30 40 52 59 97 79 32 14 62 26 66 26 4 0 25 8 47
19 21 10 73 33 114 51 196 85 416 214 465 272 131 156 164 358 90 548 -81 207
-258 313 -523 312 l-103 0 3 144 c2 79 1 145 -2 145 -16 4 -2453 3 -2459 -1z
m2696 -589 c92 -31 135 -94 139 -200 5 -109 -30 -163 -148 -232 -95 -56 -249
-131 -255 -125 -3 3 0 33 6 68 15 76 22 189 24 363 2 129 2 129 27 136 43 13
158 7 207 -10z"/>
<path d="M3010 4824 c0 -83 2 -94 18 -95 9 0 179 0 377 0 l360 -1 192 -94 193
-94 760 0 761 0 97 49 c53 26 138 69 188 93 l90 46 371 0 c204 0 375 2 381 5
5 4 9 46 8 94 l-1 88 -1897 1 -1898 1 0 -93z"/>
</g>
</svg>
